# AST/ASF file generated using VICON BodyLanguage
# -----------------------------------------------
:version 1.10
:name VICON
:units
  mass 1.0
  length 0.45
  angle deg
:documentation
   .ast/.asf automatically generated from VICON data using
   VICON BodyBuilder and BodyLanguage model FoxedUp or BRILLIANT.MOD
:root
   order TX TY TZ RX RY RZ
   axis XYZ
   position 0 0 0  
   orientation 0 0 0 
:bonedata
  begin
     id 1 
     name lhipjoint
     direction 0.621036 -0.695554 0.361275 
     length 2.46325 
     axis 0 0 0  XYZ
  end
  begin
     id 2 
     name lfemur
     direction 0.34202 -0.939693 0  
     length 6.54784  
     axis 0 0 20  XYZ
    dof rx ry rz
    limits (-160.0 20.0)
           (-70.0 70.0)
           (-60.0 70.0)
  end
  begin
     id 3 
     name ltibia
     direction 0.34202 -0.939693 0   
     length 7.84737   
     axis 0 0 20   XYZ
    dof rx
    limits (-10.0 170.0)
  end
  begin
     id 4 
     name lfoot
     direction 0.0790693 -0.217241 0.97291   
     length 2.59747   
     axis -90 7.62852e-016 20   XYZ
    dof rx rz
    limits (-45.0 90.0)
           (-70.0 20.0)
  end
  begin
     id 5 
     name ltoes
     direction 1.53572e-011 -4.21898e-011 1   
     length 1.29919   
     axis -90 7.62852e-016 20   XYZ
    dof rx
    limits (-90.0 20.0)
  end
  begin
     id 6 
     name rhipjoint
     direction -0.602353 -0.708375 0.367935   
     length 2.41867  
     axis 0 0 0  XYZ 
  end
  begin
     id 7 
     name rfemur
     direction -0.34202 -0.939693 0   
     length 6.92065   
     axis 0 0 -20   XYZ
    dof rx ry rz
    limits (-160.0 20.0)
           (-70.0 70.0)
           (-70.0 60.0)
  end
  begin
     id 8 
     name rtibia
     direction -0.34202 -0.939693 0   
     length 7.88883   
     axis 0 0 -20   XYZ
    dof rx
    limits (-10.0 170.0)
 end
 begin
     id 9 
     name rfoot
     direction -0.0768692 -0.211196 0.974416   
     length 2.43714  
     axis -90 -7.62852e-016 -20   XYZ
    dof rx rz
    limits (-45.0 90.0)
           (-20.0 70.0)
  end
  begin
     id 10 
     name rtoes
     direction -1.53575e-011 -4.21933e-011 1   
     length 1.22113   
     axis -90 -7.62852e-016 -20   XYZ
    dof rx
    limits (-90.0 20.0)
  end
  begin
     id 11 
     name lowerback
     direction 0.0197937 0.98943 -0.143655   
     length 2.16931   
     axis 0 0 0   XYZ
    dof rx ry rz
    limits (-20.0 45.0)
           (-30.0 30.0)
           (-30.0 30.0)
  end
  begin
     id 12 
     name upperback
     direction -0.00183968 0.999975 0.00684288   
     length 2.17221   
     axis 0 0 0   XYZ
    dof rx ry rz
    limits (-20.0 45.0)
           (-30.0 30.0)
           (-30.0 30.0)
  end
  begin
     id 13 
     name thorax
     direction -0.00950244 0.997208 0.0740685   
     length 2.22549   
     axis 0 0 0   XYZ
    dof rx ry rz
    limits (-20.0 45.0)
           (-30.0 30.0)
           (-30.0 30.0)
  end
  begin
     id 14 
     name lowerneck
     direction 0.0218238 0.996215 0.0841425   
     length 1.77269   
     axis 0 0 0   XYZ
    dof rx ry rz
    limits (-20.0 45.0)
           (-30.0 30.0)
           (-30.0 30.0)
  end
  begin
     id 15 
     name upperneck
     direction -0.00430652 0.994214 -0.107332   
     length 1.76534   
     axis 0 0 0   XYZ
    dof rx ry rz
    limits (-20.0 45.0)
           (-30.0 30.0)
           (-30.0 30.0)
  end
  begin
     id 16
     name head
     direction -0.00328946 0.998959 -0.0454998  
     length 1.82634  
     axis 0 0 0   XYZ
    dof rx ry rz
    limits (-20.0 45.0)
           (-30.0 30.0)
           (-30.0 30.0)
  end
  begin
     id 17 
     name lclavicle
     direction 0.970962 0.239191 0.00450212  
     length 3.84872  
     axis 0 0 0   XYZ
    dof ry rz
    limits (-20.0 10.0)
           (0.0 20.0)
  end
  begin
     id 18 
     name lhumerus
     direction 1 -4.48966e-011 5.74696e-028   
     length 5.22771   
     axis 180 -30 -90   XYZ
    dof rx ry rz
    limits (-60.0 90.0)
           (-90.0 90.0)
           (-90.0 90.0)
  end
  begin
     id 19
     name lradius
     direction 1 -4.4896e-011 4.25109e-027   
     length 3.45251   
     axis 180 -30 -90   XYZ
    dof rx
    limits (-10.0 170.0)
  end
  begin
     id 20
     name lwrist
     direction 1 -4.48971e-011 1.15382e-027   
     length 1.72626   
     axis -5.52449e-016 90 90   XYZ
    dof ry
    limits (-180.0 0.0)
 end
  begin
     id 21 
     name lhand
     direction 1 -4.49034e-011 2.30765e-027   
     length 0.552119   
     axis -1.47248e-015 90 90   XYZ
    dof rx rz
    limits (-90.0 90.0)
           (-45.0 45.0)
  end
  begin
     id 22 
     name lfingers
     direction 1 -4.48951e-011 4.61529e-027   
     length 0.445133   
     axis -2.94495e-015 90 90   XYZ
    dof rx
    limits (0.0 90.0)
  end
  begin
     id 23
     name lthumb
     direction 0.707107 -6.34991e-011 0.707107   
     length 0.639124   
     axis -90 45 2.85299e-015   XYZ
    dof rx rz
    limits (-45.0 45.0)
           (-45.0 45.0)
  end
  begin
     id 24 
     name rclavicle
     direction -0.97424 0.222511 -0.0366699   
     length 3.73439  
     axis 0 0 0   XYZ 
    dof ry rz
    limits (-10.0 20.0)
           (-20.0 0.0)
  end
  begin
     id 25 
     name rhumerus
     direction -1 -4.48956e-011 -4.97258e-028  
     length 5.2398   
     axis 180 30 90   XYZ
    dof rx ry rz
    limits (-90.0 60.0)
           (-90.0 90.0)
           (-90.0 90.0)
  end
  begin
     id 26 
     name rradius
     direction -1 -4.4897e-011 -1.72611e-027   
     length 3.48042   
     axis 180 30 90   XYZ
    dof rx
    limits (-10.0 170.0)
  end
  begin
     id 27 
     name rwrist
     direction -1 -4.48976e-011 1.15382e-027   
     length 1.74021   
     axis -5.52449e-016 -90 -90   XYZ
    dof ry
    limits (-180.0 0.0)
  end
  begin
     id 28
     name rhand
     direction -1 -4.48963e-011 2.30765e-027   
     length 0.618713   
     axis -1.47248e-015 -90 -90   XYZ
    dof rx rz
    limits (-90.0 90.0)
           (-45.0 45.0)
  end
  begin
     id 29
     name rfingers
     direction -1 -4.4888e-011 4.61529e-027   
     length 0.498823   
     axis -2.94495e-015 -90 -90   XYZ
    dof rx
    limits (0.0 90.0)
  end
  begin
     id 30
     name rthumb
     direction -0.707107 -6.34968e-011 0.707107   
     length 0.716213   
     axis -90 -45 -2.85299e-015   XYZ
    dof rx rz
    limits (-45.0 45.0)
           (-45.0 45.0)
  end
:hierarchy
  begin
    root lhipjoint rhipjoint lowerback
    lhipjoint lfemur
    lfemur ltibia
    ltibia lfoot
    lfoot ltoes
    rhipjoint rfemur
    rfemur rtibia
    rtibia rfoot
    rfoot rtoes
    lowerback upperback
    upperback thorax
    thorax lowerneck lclavicle rclavicle
    lowerneck upperneck
    upperneck head
    lclavicle lhumerus
    lhumerus lradius
    lradius lwrist
    lwrist lhand lthumb
    lhand lfingers
    rclavicle rhumerus
    rhumerus rradius
    rradius rwrist
    rwrist rhand rthumb
    rhand rfingers
  end

#!OML:ASF G:\JayActor3\Patient Classification 1\Patient 1\Session 5\male.ASF
:FULLY-SPECIFIED
:DEGREES
112
root 7.2543 14.4378 -6.51147 117.485 -88.4254 -120.614
lowerback 18.2801 -0.920012 2.48903
upperback 1.8842 -0.823692 0.156431
thorax -8.24713 -0.530474 -1.03382
lowerneck -10.9612 0.244099 2.17354
upperneck 9.36607 -0.0129208 -0.112094
head 4.60033 0.0606219 -0.388304
rclavicle -1.64308e-015 6.0971e-015
rhumerus 21.2221 14.7913 -71.1419
rradius 71.6094
rwrist 16.4347
rhand -4.2943 -4.94086
rfingers 7.12502
rthumb 21.4713 -33.7709
lclavicle -1.64308e-015 6.0971e-015
lhumerus 13.7777 -14.3794 73.5845
lradius 80.6718
lwrist -7.70377
lhand 1.53074 20.4613
lfingers 7.12502
lthumb 27.0557 48.543
rfemur -35.3176 -18.5222 16.7622
rtibia 77.4828
rfoot -33.8168 -11.3317
rtoes -13.0158
lfemur -34.676 18.3788 -12.1182
ltibia 73.4183
lfoot -29.6742 14.3185
ltoes -11.9092
113
root 7.25221 14.4353 -6.51597 114.715 -88.479 -117.85
lowerback 18.2717 -0.948485 2.47618
upperback 1.89 -0.864063 0.157735
thorax -8.2375 -0.54929 -1.01512
lowerneck -10.6879 0.2014 2.20339
upperneck 8.95225 -0.0601124 -0.145349
head 4.42703 0.0339563 -0.40624
rclavicle 4.71104e-015 -5.18393e-015
rhumerus 21.1821 14.7458 -71.1495
rradius 71.6894
rwrist 16.4771
rhand -4.26857 -4.96949
rfingers 7.12502
rthumb 21.496 -33.7967
lclavicle 4.71104e-015 -5.18393e-015
lhumerus 13.7625 -14.3829 73.5693
lradius 80.7808
lwrist -7.70839
lhand 1.60586 20.4976
lfingers 7.12502
lthumb 27.1276 48.5681
rfemur -35.3041 -18.5238 16.7646
rtibia 77.5201
rfoot -33.8627 -11.4254
rtoes -13.0277
lfemur -34.6884 18.3186 -12.1079
ltibia 73.4253
lfoot -29.6476 14.2641
ltoes -11.939
114
root 7.25073 14.4332 -6.52087 111.412 -88.5263 -114.552
lowerback 18.2748 -0.978072 2.4666
upperback 1.89553 -0.904777 0.161386
thorax -8.23449 -0.568441 -0.995521
lowerneck -10.4727 0.163696 2.1803
upperneck 8.59609 -0.101194 -0.1197
head 4.28156 0.0122786 -0.39692
rclavicle -4.82985e-015 -7.40783e-015
rhumerus 21.1345 14.6997 -71.1502
rradius 71.7844
rwrist 16.4845
rhand -4.2275 -5.00472
rfingers 7.12502
rthumb 21.5355 -33.8274
lclavicle -4.82985e-015 -7.40783e-015
lhumerus 13.7441 -14.3946 73.555
lradius 80.8903
lwrist -7.72253
lhand 1.65896 20.5135
lfingers 7.12502
lthumb 27.1784 48.5761
rfemur -35.2864 -18.5111 16.7781
rtibia 77.5506
rfoot -33.9126 -11.5389
rtoes -13.0405
lfemur -34.704 18.2625 -12.0917
ltibia 73.4318
lfoot -29.6177 14.205
ltoes -11.9722
115
root 7.24954 14.4317 -6.52605 107.79 -88.572 -110.936
lowerback 18.2837 -1.00714 2.45179
upperback 1.90173 -0.9457 0.165714
thorax -8.23384 -0.587549 -0.972091
lowerneck -10.3672 0.133604 2.08036
upperneck 7.98931 -0.13546 0.0125777
head 4.53086 -0.0011285 -0.380816
rclavicle 4.35191e-015 1.45361e-015
rhumerus 21.0854 14.6551 -71.1409
rradius 71.8897
rwrist 16.4566
rhand -4.17792 -5.04775
rfingers 7.12502
rthumb 21.5831 -33.865
lclavicle 4.35191e-015 1.45361e-015
lhumerus 13.7229 -14.4124 73.5421
lradius 80.9978
lwrist -7.74101
lhand 1.67833 20.5056
lfingers 7.12502
lthumb 27.1969 48.5653
rfemur -35.265 -18.4872 16.7919
rtibia 77.5748
rfoot -33.9642 -11.664
rtoes -13.0457
lfemur -34.7195 18.2131 -12.0794
ltibia 73.4342
lfoot -29.5853 14.1463
ltoes -12.0131
116
root 7.24859 14.4307 -6.53168 103.905 -88.6134 -107.058
lowerback 18.2963 -1.03444 2.43159
upperback 1.90918 -0.98533 0.170466
thorax -8.23369 -0.605872 -0.945415
lowerneck -10.2856 0.112183 1.93195
upperneck 7.78477 -0.154233 0.167858
head 4.43892 -0.00834648 -0.301998
rclavicle -2.13538e-017 -2.51587e-015
rhumerus 21.0355 14.6097 -71.1241
rradius 72.0007
rwrist 16.4042
rhand -4.11875 -5.08989
rfingers 7.12502
rthumb 21.6399 -33.9006
lclavicle -2.13538e-017 -2.51587e-015
lhumerus 13.7021 -14.4362 73.5293
lradius 81.101
lwrist -7.75812
lhand 1.66913 20.4759
lfingers 7.12502
lthumb 27.1881 48.537
rfemur -35.2407 -18.4489 16.8083
rtibia 77.5924
rfoot -34.0162 -11.8033
rtoes -13.051
lfemur -34.7323 18.1705 -12.0684
ltibia 73.4291
lfoot -29.5526 14.0831
ltoes -12.0498
